<svg xmlns="http://www.w3.org/2000/svg" xmlns:xlink="http://www.w3.org/1999/xlink" version="1.1" width="256" height="256" viewBox="0 0 256 256" xml:space="preserve">
<g style="stroke: none; stroke-width: 0; stroke-dasharray: none; stroke-linecap: butt; stroke-linejoin: miter; stroke-miterlimit: 10; fill: none; fill-rule: nonzero; opacity: 1;" transform="translate(1.4065934065934016 1.4065934065934016) scale(2.81 2.81)">
	<path d="M 45 90 L 45 90 C 20.147 90 0 69.853 0 45 v 0 C 0 20.147 20.147 0 45 0 h 0 c 24.853 0 45 20.147 45 45 v 0 C 90 69.853 69.853 90 45 90 z" style="stroke: none; stroke-width: 1; stroke-dasharray: none; stroke-linecap: butt; stroke-linejoin: miter; stroke-miterlimit: 10; fill: rgb(235,226,215); fill-rule: evenodd; opacity: 1;" transform=" matrix(1 0 0 1 0 0) " stroke-linecap="round"/>
	<path d="M 59.479 12.569 c 1.143 -0.225 2.326 0.102 3.192 0.882 c 0.938 0.768 1.49 1.91 1.511 3.122 c -0.062 1.237 -0.669 2.383 -1.658 3.13 l -5.91 4.734 c -0.389 0.269 -0.641 0.695 -0.691 1.165 c -0.075 0.409 0.035 0.829 0.299 1.15 c 4.345 4.912 5.238 11.983 2.252 17.821 c -3.775 7.557 -12.194 10.804 -20.314 7.926 c -0.436 -0.154 -0.91 -0.164 -1.351 -0.027 c -0.606 0.192 -0.821 0.486 -1.226 1.037 l -0.04 0.054 l -2.548 3.398 c 0 0 -2.144 2.668 1.239 2.532 c 8.198 -0.322 10.338 -0.322 14.73 -0.027 c 7.153 0.489 10.307 5.153 10.307 8.87 c 0 4.396 -2.804 9.161 -10.314 9.161 c -5.658 -0.14 -9.091 -0.175 -14.943 -0.082 c -0.836 0.014 -1.616 0.036 -2.261 0.054 h 0 c -0.616 0.017 -1.109 0.031 -1.408 0.031 c -1.926 0 -4.462 -0.505 -4.493 -2.893 c -0.023 -1.973 1.689 -3.033 3.006 -3.173 c 1.163 -0.124 2.207 0.017 3.355 0.172 h 0 h 0 h 0 h 0 h 0 c 0.684 0.093 1.405 0.19 2.209 0.239 c 0.501 0.03 0.991 0.066 1.493 0.102 h 0 h 0 h 0 h 0 c 1.438 0.104 2.984 0.216 5.217 0.236 c 1.158 0.014 2.055 0.029 2.775 0.041 c 1.884 0.032 2.55 0.043 3.469 -0.041 c 3.379 -0.303 4.959 -1.654 4.959 -3.728 c 0 -2.179 -1.581 -3.421 -4.598 -3.829 c -4.236 -0.575 -6.312 -0.442 -10.075 -0.2 c -1.266 0.082 -2.724 0.175 -4.519 0.258 c -1.647 0.078 -6.633 0.07 -7.266 -4.043 c -0.144 -1.126 -0.198 -3.021 2.186 -6.295 l 2.031 -2.719 c 0.975 -1.328 1.577 -2.431 0.144 -4.221 c 0 0 -1.056 -1.266 -1.41 -1.728 c -3.289 -4.299 -4.093 -11.048 -1.212 -16.559 c 4.272 -8.155 14.625 -11.538 22.667 -6.99 c 0.687 0.388 1.188 0.552 1.775 0.443 c 0.545 -0.089 0.733 -0.452 0.983 -0.933 c 0.056 -0.108 0.115 -0.222 0.182 -0.341 c 0.011 -0.026 0.653 -1.258 1.448 -2.784 l 0.001 -0.001 l 0 -0.001 c 0.648 -1.243 1.397 -2.68 1.987 -3.816 C 57.223 13.593 58.262 12.809 59.479 12.569 z M 37.398 48.367 c 5.021 2.447 10.594 0.563 14.229 -6.691 c 3.662 -7.309 2.241 -13.841 -2.819 -16.31 c -6.738 -3.285 -12.446 2.928 -14.594 7.2 c -3.67 7.309 -1.942 13.235 3.107 15.759 L 37.398 48.367 z" style="stroke: none; stroke-width: 1; stroke-dasharray: none; stroke-linecap: butt; stroke-linejoin: miter; stroke-miterlimit: 10; fill: rgb(30,25,21); fill-rule: evenodd; opacity: 1;" transform=" matrix(1 0 0 1 0 0) " stroke-linecap="round"/>
</g>
</svg>